<svg id="eNEgfWJs5GA1" xmlns="http://www.w3.org/2000/svg" xmlns:xlink="http://www.w3.org/1999/xlink" viewBox="0 0 200 231" shape-rendering="geometricPrecision" text-rendering="geometricPrecision"><style><![CDATA[#eNEgfWJs5GA8 {animation: eNEgfWJs5GA8_c_o 2666.6666666666665ms linear infinite normal forwards}@keyframes eNEgfWJs5GA8_c_o { 0% {opacity: 1;animation-timing-function: cubic-bezier(0.785,0.135,0.15,0.86)} 12.5% {opacity: 0;animation-timing-function: cubic-bezier(0.785,0.135,0.15,0.86)} 25% {opacity: 1} 100% {opacity: 1}}]]></style><g transform="translate(.000305 0)"><g transform="translate(-381-684)"><g transform="translate(381 684)"><g><rect width="76.7347" height="76.8049" rx="17.142857" ry="17.142857" transform="translate(123.265 57.1951)" fill="#fbcb67" fill-rule="evenodd"/><path d="M146.37758,82.873706c1.532821-2.557037,5.176892-2.649575,6.850227-.232019l.101981.154367l13.387755,21.243902c1.202635,1.908361.631945,4.431215-1.274672,5.63495-1.852143,1.169344-4.283636.663716-5.523536-1.115549l-.106265-.160289-9.848988-15.62858-9.321254,15.550928c-1.127572,1.881005-3.528724,2.526255-5.437584,1.493877l-.16237-.092608c-1.879286-1.128604-2.523947-3.531953-1.492512-5.442558l.092524-.162518L146.37758,82.873706Z" transform="matrix(0 1-1 0 245.802-54.6062)" fill="#009191"/><rect id="eNEgfWJs5GA8" width="22.8571" height="6.53659" rx="3.265306" ry="3.265306" transform="translate(166.531 106.22)" fill="#009191" fill-rule="evenodd"/><path d="M101.268571,0c27.374694,0,51.617143,16.707348,61.539592,41.624104c1.325715,3.330285-.318367,7.097422-3.672653,8.41365-3.353469,1.317039-7.147755-.315279-8.474286-3.645564-7.969795-20.014129-27.428571-33.424422-49.392653-33.424422-20.784489,0-38.761632,12.936159-46.544489,32.806022-.976327,2.492243-3.39347,4.134286-6.086531,4.134286-19.497959,0-35.576326,16.317505-35.576326,35.652447c0,19.400592,15.61551,35.153999,34.987755,35.466846l.588571.004863h62.862041c3.60653,0,6.530612,2.903159,6.530612,6.483884c0,3.513455-2.814694,6.373658-6.327347,6.480642L111.499592,134h-62.862041C21.769796,134,0,112.308166,0,85.560523C0,60.712659,19.315918,39.617342,43.874286,37.175349l.358367-.032419.200816-.427937C54.863674,14.679514,76.072653,0.307984,100.480816,0.004863L101.268571,0Z" fill="#009191" fill-rule="evenodd"/></g><path d="M15.245,230.378c3.672,0,6.687-1.098,9.045-3.294s3.537-5.256,3.537-9.18v0-25.812h-9.234v25.812c0,1.44-.315,2.502-.945,3.186s-1.431,1.026-2.403,1.026-1.764-.342-2.376-1.026-.936-1.746-.972-3.186v0h-9.18c0,3.96,1.17,7.029,3.51,9.207s5.346,3.267,9.018,3.267Zm39.758-.054c4.212,0,7.956-1.116,11.232-3.348s5.562-5.328,6.858-9.288v0h-11.016c-1.44,2.772-3.744,4.158-6.912,4.158s-5.661-.99-7.479-2.97-2.727-4.626-2.727-7.938.909-5.958,2.727-7.938s4.311-2.97,7.479-2.97s5.472,1.386,6.912,4.158v0h11.016c-1.296-3.96-3.582-7.056-6.858-9.288s-7.02-3.348-11.232-3.348c-5.436,0-10.035,1.827-13.797,5.481s-5.643,8.289-5.643,13.905s1.872,10.26,5.616,13.932c3.78,3.636,8.388,5.454,13.824,5.454ZM85.689,230v-39.96h-6.156v39.96h6.156Zm21.506.486c4.356,0,8.019-1.422,10.989-4.266s4.455-6.552,4.455-11.124-1.449-8.271-4.347-11.097-6.507-4.239-10.827-4.239-7.929,1.413-10.827,4.239-4.347,6.534-4.347,11.124s1.404,8.298,4.212,11.124s6.372,4.239,10.692,4.239Zm.027-5.184c-2.466,0-4.527-.891-6.183-2.673s-2.484-4.284-2.484-7.506.846-5.724,2.538-7.506s3.78-2.673,6.264-2.673s4.599.891,6.345,2.673s2.619,4.275,2.619,7.479-.9,5.706-2.7,7.506-3.933,2.7-6.399,2.7Zm33.305,5.13c4.392,0,7.56-1.71,9.504-5.13v0v4.698h6.156v-29.754h-6.156v16.632c0,2.664-.675,4.707-2.025,6.129s-3.177,2.133-5.481,2.133-4.122-.711-5.454-2.133-1.998-3.465-1.998-6.129v0-16.632h-6.102v17.55c0,3.996,1.089,7.101,3.267,9.315s4.941,3.321,8.289,3.321Zm36.248.054c2.34,0,4.392-.549,6.156-1.647s3.15-2.565,4.158-4.401v0v5.562h6.21v-39.96h-6.21v15.498c-.972-1.728-2.349-3.123-4.131-4.185s-3.843-1.593-6.183-1.593c-3.996,0-7.335,1.413-10.017,4.239s-4.023,6.498-4.023,11.016s1.35,8.226,4.05,11.124s6.03,4.347,9.99,4.347Zm1.296-5.346c-2.448,0-4.563-.927-6.345-2.781s-2.673-4.311-2.673-7.371.891-5.472,2.673-7.236s3.897-2.646,6.345-2.646s4.563.9,6.345,2.7s2.673,4.23,2.673,7.29-.9,5.508-2.7,7.344c-1.764,1.8-3.87,2.7-6.318,2.7Z" fill="#009191"/></g></g></g></svg>