<?xml version="1.0" encoding="UTF-8"?>
<svg width="200px" height="231px" viewBox="0 0 200 231" version="1.1" xmlns="http://www.w3.org/2000/svg" xmlns:xlink="http://www.w3.org/1999/xlink">
    <title>JClould-vertical-light</title>
    <g id="页面-1" stroke="none" stroke-width="1" fill="none" fill-rule="evenodd">
        <g id="Final-Version" transform="translate(-381.000000, -684.000000)">
            <g id="JClould-vertical-light" transform="translate(381.000000, 684.000000)">
                <g id="编组-4">
                    <rect id="矩形备份-4" fill="#FBCB67" x="123.265306" y="57.195122" width="76.7346939" height="76.804878" rx="17.1428571"></rect>
                    <path d="M146.37758,82.8737064 C147.910401,80.3166687 151.554472,80.2241311 153.227807,82.6416874 L153.329788,82.7960535 L166.717543,104.039956 C167.920178,105.948317 167.349488,108.471171 165.442871,109.674906 C163.590728,110.84425 161.159235,110.338622 159.919335,108.559357 L159.81307,108.399068 L149.964082,92.7704878 L140.642828,108.321416 C139.515256,110.202421 137.114104,110.847671 135.205244,109.815293 L135.042874,109.722685 C133.163588,108.594081 132.518927,106.190732 133.550362,104.280127 L133.642886,104.117609 L146.37758,82.8737064 Z" id="路径备份-4" fill="#009191" fill-rule="nonzero" transform="translate(150.204038, 95.597867) rotate(90.000000) translate(-150.204038, -95.597867) "></path>
                    <rect id="矩形备份-9" fill="#009191" x="166.530612" y="106.219512" width="22.8571429" height="6.53658537" rx="3.26530612"></rect>
                    <path d="M101.268571,0 C128.643265,0 152.885714,16.7073482 162.808163,41.6241041 C164.133878,44.954389 162.489796,48.7215256 159.13551,50.0377541 C155.782041,51.3547931 151.987755,49.7224752 150.661224,46.3921903 C142.691429,26.3780612 123.232653,12.9677681 101.268571,12.9677681 C80.4840816,12.9677681 62.5069388,25.9039272 54.7240816,45.7737899 C53.7477551,48.2660328 51.3306122,49.9080764 48.637551,49.9080764 C29.1395918,49.9080764 13.0612245,66.2255811 13.0612245,85.5605233 C13.0612245,104.961115 28.6767347,120.714522 48.0489796,121.027369 L48.637551,121.032232 L111.499592,121.032232 C115.106122,121.032232 118.030204,123.935391 118.030204,127.516116 C118.030204,131.029571 115.21551,133.889774 111.702857,133.996758 L111.499592,134 L48.637551,134 C21.7697959,134 0,112.308166 0,85.5605233 C0,60.7126587 19.3159184,39.617342 43.8742857,37.1753491 L44.2326531,37.1429297 L44.4334694,36.7149934 C54.8636735,14.6795135 76.0726531,0.307984492 100.480816,0.00486291303 L101.268571,0 Z" id="路径备份-5" fill="#009191"></path>
                </g>
                <path d="M15.245,230.378 C18.917,230.378 21.932,229.28 24.29,227.084 C26.648,224.888 27.827,221.828 27.827,217.904 L27.827,217.904 L27.827,192.092 L18.593,192.092 L18.593,217.904 C18.593,219.344 18.278,220.406 17.648,221.09 C17.018,221.774 16.217,222.116 15.245,222.116 C14.273,222.116 13.481,221.774 12.869,221.09 C12.257,220.406 11.933,219.344 11.897,217.904 L11.897,217.904 L2.717,217.904 C2.717,221.864 3.887,224.933 6.227,227.111 C8.567,229.289 11.573,230.378 15.245,230.378 Z M55.003,230.324 C59.215,230.324 62.959,229.208 66.235,226.976 C69.511,224.744 71.797,221.648 73.093,217.688 L73.093,217.688 L62.077,217.688 C60.637,220.46 58.333,221.846 55.165,221.846 C51.997,221.846 49.504,220.856 47.686,218.876 C45.868,216.896 44.959,214.25 44.959,210.938 C44.959,207.626 45.868,204.98 47.686,203 C49.504,201.02 51.997,200.03 55.165,200.03 C58.333,200.03 60.637,201.416 62.077,204.188 L62.077,204.188 L73.093,204.188 C71.797,200.228 69.511,197.132 66.235,194.9 C62.959,192.668 59.215,191.552 55.003,191.552 C49.567,191.552 44.968,193.379 41.206,197.033 C37.444,200.687 35.563,205.322 35.563,210.938 C35.563,216.554 37.435,221.198 41.179,224.87 C44.959,228.506 49.567,230.324 55.003,230.324 Z M85.689,230 L85.689,190.04 L79.533,190.04 L79.533,230 L85.689,230 Z M107.195,230.486 C111.551,230.486 115.214,229.064 118.184,226.22 C121.154,223.376 122.639,219.668 122.639,215.096 C122.639,210.524 121.19,206.825 118.292,203.999 C115.394,201.173 111.785,199.76 107.465,199.76 C103.145,199.76 99.536,201.173 96.638,203.999 C93.74,206.825 92.291,210.533 92.291,215.123 C92.291,219.713 93.695,223.421 96.503,226.247 C99.311,229.073 102.875,230.486 107.195,230.486 Z M107.222,225.302 C104.756,225.302 102.695,224.411 101.039,222.629 C99.383,220.847 98.555,218.345 98.555,215.123 C98.555,211.901 99.401,209.399 101.093,207.617 C102.785,205.835 104.873,204.944 107.357,204.944 C109.841,204.944 111.956,205.835 113.702,207.617 C115.448,209.399 116.321,211.892 116.321,215.096 C116.321,218.3 115.421,220.802 113.621,222.602 C111.821,224.402 109.688,225.302 107.222,225.302 Z M140.527,230.432 C144.919,230.432 148.087,228.722 150.031,225.302 L150.031,225.302 L150.031,230 L156.187,230 L156.187,200.246 L150.031,200.246 L150.031,216.878 C150.031,219.542 149.356,221.585 148.006,223.007 C146.656,224.429 144.829,225.14 142.525,225.14 C140.221,225.14 138.403,224.429 137.071,223.007 C135.739,221.585 135.073,219.542 135.073,216.878 L135.073,216.878 L135.073,200.246 L128.971,200.246 L128.971,217.796 C128.971,221.792 130.06,224.897 132.238,227.111 C134.416,229.325 137.179,230.432 140.527,230.432 Z M176.775,230.486 C179.115,230.486 181.167,229.937 182.931,228.839 C184.695,227.741 186.081,226.274 187.089,224.438 L187.089,224.438 L187.089,230 L193.299,230 L193.299,190.04 L187.089,190.04 L187.089,205.538 C186.117,203.81 184.74,202.415 182.958,201.353 C181.176,200.291 179.115,199.76 176.775,199.76 C172.779,199.76 169.44,201.173 166.758,203.999 C164.076,206.825 162.735,210.497 162.735,215.015 C162.735,219.533 164.085,223.241 166.785,226.139 C169.485,229.037 172.815,230.486 176.775,230.486 Z M178.071,225.14 C175.623,225.14 173.508,224.213 171.726,222.359 C169.944,220.505 169.053,218.048 169.053,214.988 C169.053,211.928 169.944,209.516 171.726,207.752 C173.508,205.988 175.623,205.106 178.071,205.106 C180.519,205.106 182.634,206.006 184.416,207.806 C186.198,209.606 187.089,212.036 187.089,215.096 C187.089,218.156 186.189,220.604 184.389,222.44 C182.625,224.24 180.519,225.14 178.071,225.14 Z" id="JCloud" fill="#009191" fill-rule="nonzero"></path>
            </g>
        </g>
    </g>
</svg>