<?xml version="1.0" encoding="UTF-8"?>
<svg width="200px" height="221px" viewBox="0 0 200 221" version="1.1" xmlns="http://www.w3.org/2000/svg" xmlns:xlink="http://www.w3.org/1999/xlink">
    <title>JClould-vertical-dark</title>
    <g id="页面-1" stroke="none" stroke-width="1" fill="none" fill-rule="evenodd">
        <g id="Final-Version" transform="translate(-1340.000000, -694.000000)" fill="#FFFFFF">
            <g id="JClould-vertical-dark" transform="translate(1340.000000, 694.000000)">
                <g id="编组-4">
                    <path d="M182.857143,57.195122 C192.324881,57.195122 200,64.8702405 200,74.3379791 L200,116.857143 C200,126.324881 192.324881,134 182.857143,134 L140.408163,134 C130.940425,134 123.265306,126.324881 123.265306,116.857143 L123.265306,74.3379791 C123.265306,64.8702405 130.940425,57.195122 140.408163,57.195122 L182.857143,57.195122 Z M186.122449,106.219512 L169.795918,106.219512 C167.99254,106.219512 166.530612,107.68144 166.530612,109.484818 L166.530612,109.484818 C166.530612,111.29417 167.99254,112.756098 169.795918,112.756098 L169.795918,112.756098 L186.122449,112.756098 C187.925828,112.756098 189.387755,111.29417 189.387755,109.490791 L189.387755,109.490791 C189.387755,107.68144 187.925828,106.219512 186.122449,106.219512 L186.122449,106.219512 Z M141.521779,78.9441912 C139.611173,77.9127564 137.207825,78.5574166 136.079221,80.4367034 L136.079221,80.4367034 L135.986613,80.5990731 C134.954235,82.5079325 135.599484,84.9090852 137.48049,86.0366572 L137.48049,86.0366572 L153.031418,95.3579106 L137.402837,105.206898 L137.242548,105.313164 C135.463284,106.553064 134.957656,108.984557 136.126999,110.8367 C137.330735,112.743317 139.853588,113.314007 141.76195,112.111372 L141.76195,112.111372 L163.005852,98.7236166 L163.160218,98.6216361 C165.577775,96.9483011 165.485237,93.3042295 162.928199,91.7714088 L162.928199,91.7714088 L141.684297,79.036715 Z" id="形状结合"></path>
                    <path d="M101.268571,0 C128.643265,0 152.885714,16.7073482 162.808163,41.6241041 C164.133878,44.954389 162.489796,48.7215256 159.13551,50.0377541 C155.782041,51.3547931 151.987755,49.7224752 150.661224,46.3921903 C142.691429,26.3780612 123.232653,12.9677681 101.268571,12.9677681 C80.4840816,12.9677681 62.5069388,25.9039272 54.7240816,45.7737899 C53.7477551,48.2660328 51.3306122,49.9080764 48.637551,49.9080764 C29.1395918,49.9080764 13.0612245,66.2255811 13.0612245,85.5605233 C13.0612245,104.961115 28.6767347,120.714522 48.0489796,121.027369 L48.637551,121.032232 L111.499592,121.032232 C115.106122,121.032232 118.030204,123.935391 118.030204,127.516116 C118.030204,131.029571 115.21551,133.889774 111.702857,133.996758 L111.499592,134 L48.637551,134 C21.7697959,134 0,112.308166 0,85.5605233 C0,60.7126587 19.3159184,39.617342 43.8742857,37.1753491 L44.2326531,37.1429297 L44.4334694,36.7149934 C54.8636735,14.6795135 76.0726531,0.307984492 100.480816,0.00486291303 L101.268571,0 Z" id="路径备份-5"></path>
                </g>
                <path d="M16.245,220.378 C19.917,220.378 22.932,219.28 25.29,217.084 C27.648,214.888 28.827,211.828 28.827,207.904 L28.827,207.904 L28.827,182.092 L19.593,182.092 L19.593,207.904 C19.593,209.344 19.278,210.406 18.648,211.09 C18.018,211.774 17.217,212.116 16.245,212.116 C15.273,212.116 14.481,211.774 13.869,211.09 C13.257,210.406 12.933,209.344 12.897,207.904 L12.897,207.904 L3.717,207.904 C3.717,211.864 4.887,214.933 7.227,217.111 C9.567,219.289 12.573,220.378 16.245,220.378 Z M56.003,220.324 C60.215,220.324 63.959,219.208 67.235,216.976 C70.511,214.744 72.797,211.648 74.093,207.688 L74.093,207.688 L63.077,207.688 C61.637,210.46 59.333,211.846 56.165,211.846 C52.997,211.846 50.504,210.856 48.686,208.876 C46.868,206.896 45.959,204.25 45.959,200.938 C45.959,197.626 46.868,194.98 48.686,193 C50.504,191.02 52.997,190.03 56.165,190.03 C59.333,190.03 61.637,191.416 63.077,194.188 L63.077,194.188 L74.093,194.188 C72.797,190.228 70.511,187.132 67.235,184.9 C63.959,182.668 60.215,181.552 56.003,181.552 C50.567,181.552 45.968,183.379 42.206,187.033 C38.444,190.687 36.563,195.322 36.563,200.938 C36.563,206.554 38.435,211.198 42.179,214.87 C45.959,218.506 50.567,220.324 56.003,220.324 Z M86.689,220 L86.689,180.04 L80.533,180.04 L80.533,220 L86.689,220 Z M108.195,220.486 C112.551,220.486 116.214,219.064 119.184,216.22 C122.154,213.376 123.639,209.668 123.639,205.096 C123.639,200.524 122.19,196.825 119.292,193.999 C116.394,191.173 112.785,189.76 108.465,189.76 C104.145,189.76 100.536,191.173 97.638,193.999 C94.74,196.825 93.291,200.533 93.291,205.123 C93.291,209.713 94.695,213.421 97.503,216.247 C100.311,219.073 103.875,220.486 108.195,220.486 Z M108.222,215.302 C105.756,215.302 103.695,214.411 102.039,212.629 C100.383,210.847 99.555,208.345 99.555,205.123 C99.555,201.901 100.401,199.399 102.093,197.617 C103.785,195.835 105.873,194.944 108.357,194.944 C110.841,194.944 112.956,195.835 114.702,197.617 C116.448,199.399 117.321,201.892 117.321,205.096 C117.321,208.3 116.421,210.802 114.621,212.602 C112.821,214.402 110.688,215.302 108.222,215.302 Z M141.527,220.432 C145.919,220.432 149.087,218.722 151.031,215.302 L151.031,215.302 L151.031,220 L157.187,220 L157.187,190.246 L151.031,190.246 L151.031,206.878 C151.031,209.542 150.356,211.585 149.006,213.007 C147.656,214.429 145.829,215.14 143.525,215.14 C141.221,215.14 139.403,214.429 138.071,213.007 C136.739,211.585 136.073,209.542 136.073,206.878 L136.073,206.878 L136.073,190.246 L129.971,190.246 L129.971,207.796 C129.971,211.792 131.06,214.897 133.238,217.111 C135.416,219.325 138.179,220.432 141.527,220.432 Z M177.775,220.486 C180.115,220.486 182.167,219.937 183.931,218.839 C185.695,217.741 187.081,216.274 188.089,214.438 L188.089,214.438 L188.089,220 L194.299,220 L194.299,180.04 L188.089,180.04 L188.089,195.538 C187.117,193.81 185.74,192.415 183.958,191.353 C182.176,190.291 180.115,189.76 177.775,189.76 C173.779,189.76 170.44,191.173 167.758,193.999 C165.076,196.825 163.735,200.497 163.735,205.015 C163.735,209.533 165.085,213.241 167.785,216.139 C170.485,219.037 173.815,220.486 177.775,220.486 Z M179.071,215.14 C176.623,215.14 174.508,214.213 172.726,212.359 C170.944,210.505 170.053,208.048 170.053,204.988 C170.053,201.928 170.944,199.516 172.726,197.752 C174.508,195.988 176.623,195.106 179.071,195.106 C181.519,195.106 183.634,196.006 185.416,197.806 C187.198,199.606 188.089,202.036 188.089,205.096 C188.089,208.156 187.189,210.604 185.389,212.44 C183.625,214.24 181.519,215.14 179.071,215.14 Z" id="JCloud" fill-rule="nonzero"></path>
            </g>
        </g>
    </g>
</svg>